<?xml version="1.0" encoding="UTF-8" standalone="no"?>
<!DOCTYPE svg PUBLIC "-//W3C//DTD SVG 1.1//EN" "http://www.w3.org/Graphics/SVG/1.1/DTD/svg11.dtd">
<svg xmlns="http://www.w3.org/2000/svg" version="1.1" viewBox="0 0 276 82">
<g stroke-width="2.00" fill="none" stroke-linecap="butt">
<path stroke="#fbfcfd" stroke-opacity="0.992" vector-effect="non-scaling-stroke" d="
  M 215.00 59.71
  L 214.29 60.25"
/>
<path stroke="#fbfcfd" stroke-opacity="0.992" vector-effect="non-scaling-stroke" d="
  M 211.75 63.29
  Q 210.87 63.69 211.75 63.79"
/>
<path stroke="#d2e0d9" stroke-opacity="0.992" vector-effect="non-scaling-stroke" d="
  M 257.75 60.71
  L 258.21 61.00"
/>
<path stroke="#b3b3b6" stroke-opacity="0.855" vector-effect="non-scaling-stroke" d="
  M 191.63 27.84
  C 191.85 27.12 193.79 21.34 193.55 21.15
  A 0.25 0.19 -63.9 0 0 193.23 21.31
  Q 192.17 24.41 191.53 27.61
  Q 191.20 29.22 191.63 27.84"
/>
<path stroke="#b3b3b6" stroke-opacity="0.855" vector-effect="non-scaling-stroke" d="
  M 172.50 36.39
  Q 170.95 38.68 172.44 36.48
  Q 173.83 34.42 172.50 36.39"
/>
<path stroke="#b3b3b6" stroke-opacity="0.855" vector-effect="non-scaling-stroke" d="
  M 96.42 37.12
  C 96.72 37.29 98.35 33.70 96.48 36.28
  A 0.69 0.41 -55.1 0 0 96.42 37.12"
/>
</g>
<path fill="#fdfdfe" fill-opacity="0.996" d="
  M 16.32 58.20
  Q 16.44 58.53 16.51 58.19
  L 24.74 16.57
  Q 24.88 15.85 24.28 16.27
  Q 14.18 23.38 14.78 35.08
  C 14.80 35.61 15.56 37.86 13.95 37.22
  A 0.87 0.79 -83.2 0 1 13.45 36.51
  Q 12.03 22.79 24.36 14.35
  A 3.00 3.00 -14.0 0 0 25.63 12.24
  Q 25.83 10.47 26.73 10.63
  A 0.67 0.50 -83.9 0 1 27.13 11.31
  C 26.96 13.88 28.87 12.09 29.97 11.80
  C 59.38 4.13 36.93 60.35 18.26 61.72
  A 1.01 0.90 10.9 0 0 17.49 62.18
  Q 16.10 64.68 17.83 65.98
  A 1.01 1.01 34.5 0 1 18.08 67.33
  C 13.67 74.26 15.83 62.37 15.93 61.74
  A 1.57 0.52 58.0 0 0 15.71 60.85
  L 14.37 57.98
  A 0.73 0.65 -32.3 0 1 14.61 57.15
  Q 15.61 56.36 16.32 58.20
  Z
  M 29.16 53.55
  C 36.45 45.95 44.21 29.32 42.50 19.00
  C 41.15 10.88 32.66 11.94 27.10 14.54
  A 1.02 1.02 -7.3 0 0 26.55 15.25
  L 17.82 59.26
  Q 17.53 60.71 18.92 60.19
  Q 24.93 57.96 29.16 53.55
  Z"
/>
<path fill="#fdfdfe" fill-opacity="0.996" d="
  M 178.07 45.16
  C 176.30 46.87 174.11 49.42 171.84 49.89
  C 167.54 50.80 167.49 45.37 168.04 42.55
  Q 168.20 41.72 167.54 42.22
  L 159.95 48.00
  A 1.05 0.89 74.0 0 0 159.58 48.82
  C 159.71 57.82 151.92 65.91 144.28 69.15
  C 135.65 72.81 139.50 64.54 142.29 61.54
  Q 149.05 54.25 156.84 48.37
  A 0.88 0.87 -41.6 0 0 156.92 47.04
  C 153.06 43.34 147.86 41.63 143.06 39.62
  C 134.91 36.21 133.00 32.60 139.31 25.63
  C 144.58 19.82 157.13 10.67 165.50 12.62
  A 1.94 1.94 2.4 0 1 166.98 14.23
  Q 167.41 17.06 166.43 17.15
  A 0.67 0.48 82.6 0 1 165.88 16.56
  Q 165.28 12.55 160.44 14.19
  C 152.57 16.85 139.57 23.78 137.31 31.56
  C 135.96 36.22 142.63 37.86 145.87 39.03
  Q 152.31 41.35 158.65 46.31
  A 0.66 0.66 -44.2 0 0 159.46 46.32
  L 168.43 39.67
  A 3.08 3.03 -8.1 0 0 169.49 38.28
  C 169.78 37.51 174.59 29.84 174.96 34.45
  C 175.12 36.45 171.75 39.88 170.32 41.12
  A 1.83 1.55 -15.6 0 0 169.78 41.92
  Q 169.09 44.25 169.31 46.70
  Q 169.59 49.67 172.15 48.16
  Q 176.64 45.54 179.70 40.65
  C 181.01 38.54 184.44 34.69 186.43 37.12
  Q 187.20 38.05 187.43 36.86
  Q 189.23 27.67 193.06 18.07
  A 1.86 1.85 -71.2 0 1 195.28 16.97
  C 197.32 17.54 191.36 32.39 190.66 34.02
  C 186.97 42.67 185.77 52.44 185.04 61.75
  A 1.43 1.04 35.9 0 0 185.33 62.63
  Q 186.16 63.75 185.10 64.65
  A 1.05 0.88 -53.4 0 1 184.21 64.86
  C 181.72 64.12 185.50 47.18 186.06 44.71
  Q 186.32 43.55 185.77 43.63
  A 1.19 0.60 -68.9 0 0 185.08 44.26
  Q 184.11 46.03 182.70 47.44
  C 180.34 49.79 178.04 48.54 178.37 45.31
  Q 178.42 44.83 178.07 45.16
  Z
  M 191.63 27.84
  C 191.85 27.12 193.79 21.34 193.55 21.15
  A 0.25 0.19 -63.9 0 0 193.23 21.31
  Q 192.17 24.41 191.53 27.61
  Q 191.20 29.22 191.63 27.84
  Z
  M 172.50 36.39
  Q 170.95 38.68 172.44 36.48
  Q 173.83 34.42 172.50 36.39
  Z
  M 184.80 38.18
  A 0.63 0.63 -41.3 0 0 183.97 38.13
  Q 180.03 41.24 180.06 46.45
  Q 180.08 48.24 181.24 46.88
  C 182.66 45.22 187.07 40.41 184.80 38.18
  Z
  M 140.59 67.71
  A 1.49 1.49 63.0 0 0 142.48 68.33
  Q 154.55 63.08 158.01 51.23
  Q 158.64 49.06 156.82 50.40
  C 154.27 52.29 139.03 65.00 140.59 67.71
  Z"
/>
<path fill="#fdfdfe" fill-opacity="0.996" d="
  M 108.05 24.94
  L 109.92 17.55
  A 1.01 0.83 -88.5 0 1 110.52 16.86
  C 112.45 16.27 109.89 23.66 109.80 24.07
  A 1.29 1.29 4.1 0 0 111.15 25.62
  Q 123.47 24.82 134.00 25.71
  A 1.26 1.01 -13.1 0 1 134.83 26.11
  Q 135.78 27.27 133.75 27.00
  Q 127.15 26.13 109.69 27.16
  A 0.70 0.69 -84.2 0 0 109.06 27.68
  Q 104.22 46.82 100.91 66.28
  C 100.69 67.58 100.88 68.41 100.92 69.68
  A 1.33 1.21 66.8 0 1 100.61 70.58
  C 98.76 72.63 98.98 69.10 99.11 68.26
  Q 100.94 56.05 103.67 44.33
  Q 104.04 42.76 103.07 44.05
  C 101.31 46.41 94.29 54.15 92.26 47.27
  Q 91.85 45.89 91.20 47.17
  C 90.12 49.28 87.20 54.01 84.83 54.67
  C 79.61 56.14 85.72 40.27 85.06 40.07
  A 1.20 0.52 -42.5 0 0 84.17 40.38
  Q 82.34 41.76 80.25 41.15
  A 1.20 1.20 23.1 0 0 78.88 41.70
  C 77.06 44.82 66.54 59.18 65.95 44.67
  Q 65.91 43.74 65.33 44.46
  L 59.80 51.36
  A 1.33 1.17 64.4 0 0 59.55 52.24
  Q 60.05 57.40 56.75 61.10
  C 55.76 62.21 53.25 63.32 53.00 60.98
  C 52.74 58.61 55.94 53.85 57.38 52.01
  A 1.37 1.23 51.0 0 0 57.45 50.58
  L 53.06 42.65
  A 0.51 0.49 47.1 0 0 52.20 42.60
  Q 49.66 46.53 45.74 48.41
  Q 43.44 49.52 43.00 47.01
  C 42.92 46.53 42.97 36.49 44.77 39.55
  A 1.28 1.02 -57.0 0 1 44.86 40.48
  Q 44.04 43.52 44.39 45.99
  Q 44.67 47.91 46.18 46.70
  Q 50.59 43.14 53.54 38.30
  Q 55.50 35.10 59.19 35.49
  A 1.11 1.00 -10.9 0 1 59.98 35.97
  C 61.01 37.56 58.34 36.84 57.28 37.23
  C 51.44 39.38 56.37 46.10 58.62 49.28
  A 0.61 0.60 -44.3 0 0 59.60 49.29
  Q 64.35 42.80 69.44 38.15
  A 1.22 1.04 -60.9 0 1 70.30 37.83
  C 74.55 38.20 70.03 44.18 70.50 40.25
  Q 70.80 37.73 69.44 39.94
  Q 67.53 43.02 67.75 46.68
  C 68.26 55.16 77.28 41.68 78.00 40.44
  A 1.58 1.43 58.8 0 0 78.18 39.51
  C 77.33 32.56 86.46 27.75 83.32 35.33
  C 83.20 35.62 79.83 40.96 82.36 39.55
  Q 84.19 38.53 86.06 37.56
  Q 88.25 36.43 87.25 39.25
  Q 85.21 44.99 84.26 50.91
  Q 83.58 55.16 86.30 51.83
  Q 91.16 45.86 93.68 38.60
  Q 95.02 34.74 96.81 33.81
  C 102.70 30.77 96.66 39.09 95.31 40.31
  C 92.95 42.45 92.38 52.28 98.19 46.94
  Q 101.33 44.04 103.19 41.34
  C 105.67 37.71 106.22 32.28 107.41 27.63
  A 0.46 0.46 5.6 0 0 106.94 27.06
  Q 100.97 27.35 94.99 27.26
  C 92.22 27.22 93.73 25.83 95.30 25.81
  Q 101.37 25.71 107.44 25.46
  A 0.70 0.65 -83.3 0 0 108.05 24.94
  Z
  M 81.62 33.79
  Q 79.50 35.76 79.68 38.01
  Q 79.73 38.55 80.06 38.12
  Q 81.35 36.45 82.13 34.11
  Q 82.51 32.95 81.62 33.79
  Z
  M 96.42 37.12
  C 96.72 37.29 98.35 33.70 96.48 36.28
  A 0.69 0.41 -55.1 0 0 96.42 37.12
  Z
  M 57.19 54.68
  L 54.58 59.81
  Q 53.48 61.97 55.30 60.32
  Q 57.77 58.08 57.99 54.92
  Q 58.13 52.84 57.19 54.68
  Z"
/>
<path fill="#4a4b51" fill-opacity="0.710" d="
  M 191.63 27.84
  Q 191.20 29.22 191.53 27.61
  Q 192.17 24.41 193.23 21.31
  A 0.25 0.19 -63.9 0 1 193.55 21.15
  C 193.79 21.34 191.85 27.12 191.63 27.84
  Z"
/>
<rect fill="#fdfdfe" fill-opacity="0.996" x="-0.75" y="-2.54" transform="translate(240.60,32.85) rotate(38.0)" width="1.50" height="5.08" rx="0.71"/>
<path fill="#fdfdfe" fill-opacity="0.996" d="
  M 45.76 34.91
  C 47.56 35.96 43.44 37.97 44.44 35.37
  A 0.92 0.91 -64.2 0 1 45.76 34.91
  Z"
/>
<ellipse fill="#fdfdfe" fill-opacity="0.996" cx="0.00" cy="0.00" transform="translate(228.65,35.67) rotate(-26.1)" rx="1.09" ry="0.81"/>
<path fill="#4a4b51" fill-opacity="0.710" d="
  M 96.48 36.28
  C 98.35 33.70 96.72 37.29 96.42 37.12
  A 0.69 0.41 -55.1 0 1 96.48 36.28
  Z"
/>
<path fill="#4a4b51" fill-opacity="0.710" d="
  M 172.50 36.39
  Q 173.83 34.42 172.44 36.48
  Q 170.95 38.68 172.50 36.39
  Z"
/>
<path fill="#fdfdfe" fill-opacity="0.996" d="
  M 110.29 44.25
  L 111.96 42.50
  L 113.97 39.90
  Q 115.04 38.52 115.29 40.30
  Q 115.54 42.08 115.83 44.04
  C 117.02 52.32 122.15 42.39 123.09 40.51
  A 1.48 0.90 -77.1 0 1 123.76 39.82
  C 127.09 38.59 119.66 48.00 119.56 48.06
  C 115.97 50.66 114.42 46.47 114.25 43.75
  Q 114.10 41.20 112.81 43.56
  Q 111.59 45.81 109.44 47.19
  Q 107.61 48.35 107.75 45.75
  Q 108.01 40.87 111.36 37.35
  C 114.55 33.99 117.51 38.40 115.81 38.65
  A 1.29 0.88 52.9 0 1 114.95 38.36
  C 111.61 35.67 109.58 42.67 109.36 44.68
  Q 109.29 45.34 109.80 45.07
  Q 110.22 44.86 110.29 44.25
  Z"
/>
<path fill="#fdfdfe" fill-opacity="0.996" d="
  M 213.64 45.21
  C 211.63 47.82 204.48 55.75 203.14 46.77
  Q 202.99 45.76 202.13 46.49
  L 198.94 49.19
  Q 196.55 51.21 196.25 48.50
  L 195.91 45.45
  Q 195.83 44.65 195.27 45.16
  C 189.54 50.47 189.87 42.28 191.99 39.69
  A 0.55 0.46 -48.2 0 1 192.74 39.58
  C 193.31 40.17 192.07 43.03 192.00 44.00
  Q 191.79 46.81 193.81 44.31
  C 194.31 43.69 196.50 40.36 197.43 41.12
  A 1.15 0.69 -77.5 0 1 197.72 41.99
  L 197.50 47.01
  Q 197.42 48.87 198.78 47.60
  Q 202.19 44.43 204.57 40.32
  C 205.64 38.45 209.41 35.16 208.76 40.68
  A 1.28 1.06 79.6 0 1 208.30 41.51
  Q 207.05 42.38 207.50 39.73
  Q 207.74 38.34 206.91 39.48
  Q 204.22 43.16 204.75 47.75
  Q 205.15 51.23 208.06 48.81
  C 211.94 45.60 213.65 41.03 217.31 38.06
  Q 219.27 36.48 219.94 38.81
  Q 220.40 40.43 219.38 41.43
  A 0.50 0.43 -39.8 0 1 218.65 41.42
  C 218.19 40.71 218.91 38.55 217.97 39.69
  Q 214.80 43.53 215.75 47.75
  C 217.12 53.86 225.31 41.73 226.05 40.57
  C 229.66 34.85 227.72 45.59 227.75 46.01
  Q 227.86 47.82 229.37 46.81
  Q 232.70 44.58 235.09 41.08
  Q 236.36 39.21 239.71 37.56
  A 1.44 1.44 -22.8 0 1 241.70 38.37
  Q 242.36 40.19 242.22 42.48
  A 0.49 0.49 -1.0 0 0 242.76 43.00
  Q 246.96 42.53 248.15 38.52
  Q 248.60 37.00 249.23 36.45
  Q 250.58 35.29 250.31 37.05
  C 250.31 37.10 248.68 44.22 250.06 40.56
  Q 250.69 38.91 252.69 39.01
  A 1.20 1.14 70.5 0 1 253.51 39.43
  Q 255.09 41.33 255.69 43.83
  Q 256.36 46.61 258.32 44.53
  Q 259.85 42.90 261.21 40.37
  A 1.17 0.96 -77.8 0 1 261.93 39.80
  C 264.66 39.28 259.57 45.29 259.31 45.56
  C 255.52 49.43 254.05 43.94 253.14 41.48
  Q 252.41 39.48 251.32 41.30
  Q 249.19 44.86 247.64 48.69
  C 247.25 49.66 246.07 51.29 246.00 48.50
  Q 245.97 47.22 247.04 43.54
  Q 247.16 43.16 246.74 43.28
  L 242.24 44.68
  A 1.67 0.76 -6.2 0 0 241.45 45.15
  Q 237.84 49.82 235.20 44.13
  A 0.33 0.32 -38.3 0 0 234.65 44.07
  Q 232.91 46.20 230.76 47.62
  C 227.56 49.73 225.65 47.50 226.26 44.18
  Q 226.68 41.92 225.46 43.87
  C 223.09 47.66 215.27 56.76 213.99 45.30
  Q 213.94 44.82 213.64 45.21
  Z
  M 240.09 41.75
  Q 240.80 42.21 240.73 41.36
  C 240.34 36.58 238.15 40.50 240.09 41.75
  Z
  M 237.22 41.41
  C 235.40 44.30 238.85 47.29 239.87 44.48
  A 1.00 0.75 39.3 0 0 239.66 43.62
  L 237.81 41.40
  A 0.38 0.35 41.3 0 0 237.22 41.41
  Z"
/>
<path fill="#f9fbfb" fill-opacity="0.988" d="
  M 215.00 59.71
  L 214.29 60.25
  Q 209.51 58.57 211.75 63.29
  Q 210.87 63.69 211.75 63.79
  Q 210.84 64.35 210.11 63.83
  A 1.07 0.81 -76.3 0 1 209.75 63.00
  L 209.80 55.32
  A 0.58 0.57 -2.8 0 1 210.32 54.75
  Q 212.86 54.50 215.19 55.56
  Q 217.22 56.49 215.19 58.44
  Q 214.56 59.04 215.00 59.71
  Z
  M 212.77 55.58
  A 1.14 1.14 14.4 0 0 211.26 56.47
  C 210.26 62.41 217.21 57.19 212.77 55.58
  Z"
/>
<path fill="#f9fbfb" fill-opacity="0.988" d="
  M 221.96 59.75
  L 222.04 60.00
  C 222.01 60.67 222.44 64.33 221.15 64.00
  A 0.78 0.61 -86.5 0 1 220.67 63.31
  Q 220.48 59.31 218.11 56.08
  A 1.26 0.89 39.2 0 1 217.86 55.19
  C 218.08 54.03 219.17 55.07 219.41 55.68
  Q 220.30 57.97 221.96 59.75
  Z"
/>
<path fill="#daded0" fill-opacity="0.965" d="
  M 222.04 60.00
  L 221.96 59.75
  Q 222.55 57.00 223.59 55.62
  Q 225.26 53.42 224.26 55.99
  Q 223.41 58.15 222.04 60.00
  Z"
/>
<path fill="#f9fbfb" fill-opacity="0.988" d="
  M 237.25 61.71
  L 237.18 60.57
  L 234.96 56.50
  Q 234.95 55.58 235.52 55.08
  A 0.45 0.40 56.6 0 1 236.16 55.25
  Q 238.07 59.07 239.75 63.00
  Q 240.25 64.15 239.06 64.03
  A 1.15 0.69 68.8 0 1 238.36 63.49
  L 237.25 61.71
  Z"
/>
<path fill="#f9fbfb" fill-opacity="0.988" d="
  M 242.00 54.89
  C 250.51 53.15 253.36 64.76 242.18 63.86
  A 0.57 0.56 1.7 0 1 241.65 63.31
  L 241.48 55.50
  A 0.65 0.60 -6.9 0 1 242.00 54.89
  Z
  M 243.63 63.04
  C 249.18 65.58 249.32 53.82 243.54 55.63
  A 0.74 0.69 -10.2 0 0 243.03 56.31
  L 243.14 62.30
  A 0.83 0.80 12.5 0 0 243.63 63.04
  Z"
/>
<path fill="#f9fbfb" fill-opacity="0.988" d="
  M 257.75 60.71
  L 258.21 61.00
  L 258.13 63.76
  Q 258.11 64.41 257.68 63.87
  L 252.93 57.80
  Q 251.68 56.21 251.74 58.17
  L 251.90 63.06
  A 0.73 0.33 84.3 0 1 251.68 63.71
  Q 251.55 63.76 251.40 63.70
  A 0.46 0.34 -81.9 0 1 251.18 63.30
  L 251.28 55.31
  A 0.49 0.47 -85.4 0 1 251.82 54.83
  C 252.82 54.97 256.11 59.63 257.75 60.71
  Z"
/>
<path fill="#acc6b8" fill-opacity="0.992" d="
  M 258.21 61.00
  L 257.75 60.71
  Q 257.55 59.56 257.50 55.75
  Q 257.49 55.05 257.73 54.94
  A 0.56 0.34 83.2 0 1 258.21 55.55
  L 258.21 61.00
  Z"
/>
<path fill="#daded0" fill-opacity="0.965" d="
  M 234.71 57.00
  C 235.03 58.15 232.42 63.76 237.18 60.57
  L 237.25 61.71
  C 235.59 62.21 233.22 60.73 232.75 63.20
  A 0.64 0.53 -83.2 0 1 232.20 63.72
  C 231.21 63.69 234.30 57.76 234.71 57.00
  Z"
/>
<path fill="#f9fbfb" fill-opacity="0.988" d="
  M 225.79 58.75
  Q 225.61 58.50 225.76 58.20
  A 0.69 0.55 20.8 0 1 226.54 57.95
  Q 228.02 58.41 226.66 58.91
  A 0.83 0.61 -26.1 0 1 225.79 58.75
  Z"
/>
<path fill="#fdfdfe" fill-opacity="0.996" d="
  M 215.00 59.71
  C 218.64 60.95 214.91 64.42 211.75 63.79
  Q 210.87 63.69 211.75 63.29
  Q 215.55 63.56 214.29 60.25
  L 215.00 59.71
  Z"
/>
<path fill="#f9fbfb" fill-opacity="0.988" d="
  M 225.83 63.71
  Q 225.49 63.24 225.99 62.90
  A 0.88 0.76 42.5 0 1 226.88 62.93
  Q 227.86 63.58 226.67 63.94
  A 0.80 0.68 -25.1 0 1 225.83 63.71
  Z"
/>
</svg>
