<?xml version="1.0" standalone="no"?>
<!DOCTYPE svg PUBLIC "-//W3C//DTD SVG 20010904//EN"
 "http://www.w3.org/TR/2001/REC-SVG-20010904/DTD/svg10.dtd">
<svg version="1.0" xmlns="http://www.w3.org/2000/svg"
 width="16.000000pt" height="16.000000pt" viewBox="0 0 512.000000 512.000000"
 preserveAspectRatio="xMidYMid meet">

<g transform="translate(0.000000,512.000000) scale(0.100000,-0.100000)"
fill="#FFFFFF" stroke="none">
<path d="M1760 5110 c-606 -74 -1121 -407 -1431 -925 -105 -176 -194 -416
-236 -639 -25 -129 -25 -513 0 -642 161 -851 827 -1471 1679 -1563 353 -39
738 34 1058 200 l75 39 750 -749 c461 -460 767 -758 795 -774 206 -117 458
-40 562 171 31 62 33 73 33 172 0 179 59 107 -797 966 l-750 751 55 84 c143
219 241 481 283 749 22 139 22 409 0 550 -109 704 -588 1282 -1255 1515 -89
32 -205 61 -316 80 -107 19 -400 28 -505 15z m512 -289 c509 -104 932 -431
1154 -895 91 -191 133 -346 155 -573 20 -206 -7 -422 -82 -648 -57 -171 -126
-298 -275 -509 -39 -55 -46 -114 -18 -156 9 -14 367 -376 795 -805 l779 -780
0 -52 c0 -90 -68 -145 -158 -128 -32 6 -136 105 -837 805 -834 832 -825 824
-887 805 -13 -4 -60 -30 -106 -57 -152 -91 -357 -168 -542 -203 -120 -23 -334
-30 -460 -16 -212 24 -384 76 -570 172 -474 245 -796 698 -869 1222 -14 101
-14 343 0 444 73 523 396 978 869 1222 175 90 327 139 520 167 131 19 403 11
532 -15z"/>
<path d="M1805 4584 c-488 -74 -857 -337 -1068 -759 -93 -186 -137 -380 -137
-600 0 -220 44 -414 137 -600 194 -388 530 -647 963 -741 119 -26 400 -26 520
-1 185 40 368 117 520 220 41 28 125 101 185 162 201 201 316 416 377 698 30
144 30 380 0 524 -61 282 -176 497 -377 698 -60 61 -144 134 -185 162 -148
100 -333 179 -510 218 -73 16 -361 29 -425 19z m430 -298 c300 -78 560 -286
702 -561 83 -163 117 -307 117 -500 0 -193 -34 -337 -117 -500 -142 -275 -398
-480 -702 -562 -91 -25 -116 -27 -275 -27 -157 0 -185 3 -272 27 -311 83 -564
289 -704 572 -66 135 -102 257 -113 389 -49 569 335 1075 896 1181 122 23 341
14 468 -19z"/>
</g>
</svg>
